mtllib egg.mtl
o egg
usemtl egg_mat
v 0.1000 0.0100 0.0000
v 0.0866 0.0100 0.0500
v 0.0500 0.0100 0.0866
v 0.0000 0.0100 0.1000
v -0.0500 0.0100 0.0866
v -0.0866 0.0100 0.0500
v -0.1000 0.0100 0.0000
v -0.0866 0.0100 -0.0500
v -0.0500 0.0100 -0.0866
v -0.0000 0.0100 -0.1000
v 0.0500 0.0100 -0.0866
v 0.0866 0.0100 -0.0500
v 0.1900 0.0500 0.0000
v 0.1645 0.0500 0.0950
v 0.0950 0.0500 0.1645
v 0.0000 0.0500 0.1900
v -0.0950 0.0500 0.1645
v -0.1645 0.0500 0.0950
v -0.1900 0.0500 0.0000
v -0.1645 0.0500 -0.0950
v -0.0950 0.0500 -0.1645
v -0.0000 0.0500 -0.1900
v 0.0950 0.0500 -0.1645
v 0.1645 0.0500 -0.0950
v 0.2500 0.1200 0.0000
v 0.2165 0.1200 0.1250
v 0.1250 0.1200 0.2165
v 0.0000 0.1200 0.2500
v -0.1250 0.1200 0.2165
v -0.2165 0.1200 0.1250
v -0.2500 0.1200 0.0000
v -0.2165 0.1200 -0.1250
v -0.1250 0.1200 -0.2165
v -0.0000 0.1200 -0.2500
v 0.1250 0.1200 -0.2165
v 0.2165 0.1200 -0.1250
v 0.2750 0.2200 0.0000
v 0.2382 0.2200 0.1375
v 0.1375 0.2200 0.2382
v 0.0000 0.2200 0.2750
v -0.1375 0.2200 0.2382
v -0.2382 0.2200 0.1375
v -0.2750 0.2200 0.0000
v -0.2382 0.2200 -0.1375
v -0.1375 0.2200 -0.2382
v -0.0000 0.2200 -0.2750
v 0.1375 0.2200 -0.2382
v 0.2382 0.2200 -0.1375
v 0.2600 0.3200 0.0000
v 0.2252 0.3200 0.1300
v 0.1300 0.3200 0.2252
v 0.0000 0.3200 0.2600
v -0.1300 0.3200 0.2252
v -0.2252 0.3200 0.1300
v -0.2600 0.3200 0.0000
v -0.2252 0.3200 -0.1300
v -0.1300 0.3200 -0.2252
v -0.0000 0.3200 -0.2600
v 0.1300 0.3200 -0.2252
v 0.2252 0.3200 -0.1300
v 0.2200 0.4000 0.0000
v 0.1905 0.4000 0.1100
v 0.1100 0.4000 0.1905
v 0.0000 0.4000 0.2200
v -0.1100 0.4000 0.1905
v -0.1905 0.4000 0.1100
v -0.2200 0.4000 0.0000
v -0.1905 0.4000 -0.1100
v -0.1100 0.4000 -0.1905
v -0.0000 0.4000 -0.2200
v 0.1100 0.4000 -0.1905
v 0.1905 0.4000 -0.1100
v 0.1600 0.4700 0.0000
v 0.1386 0.4700 0.0800
v 0.0800 0.4700 0.1386
v 0.0000 0.4700 0.1600
v -0.0800 0.4700 0.1386
v -0.1386 0.4700 0.0800
v -0.1600 0.4700 0.0000
v -0.1386 0.4700 -0.0800
v -0.0800 0.4700 -0.1386
v -0.0000 0.4700 -0.1600
v 0.0800 0.4700 -0.1386
v 0.1386 0.4700 -0.0800
v 0.0900 0.5200 0.0000
v 0.0779 0.5200 0.0450
v 0.0450 0.5200 0.0779
v 0.0000 0.5200 0.0900
v -0.0450 0.5200 0.0779
v -0.0779 0.5200 0.0450
v -0.0900 0.5200 0.0000
v -0.0779 0.5200 -0.0450
v -0.0450 0.5200 -0.0779
v -0.0000 0.5200 -0.0900
v 0.0450 0.5200 -0.0779
v 0.0779 0.5200 -0.0450
v 0.0000 0.0000 0.0000
v 0.0000 0.5600 0.0000
vt 1.0000 0.0179
vt 0.9167 0.0179
vt 0.8333 0.0179
vt 0.7500 0.0179
vt 0.6667 0.0179
vt 0.5833 0.0179
vt 0.5000 0.0179
vt 0.4167 0.0179
vt 0.3333 0.0179
vt 0.2500 0.0179
vt 0.1667 0.0179
vt 0.0833 0.0179
vt 0.0000 0.0179
vt 1.0000 0.0893
vt 0.9167 0.0893
vt 0.8333 0.0893
vt 0.7500 0.0893
vt 0.6667 0.0893
vt 0.5833 0.0893
vt 0.5000 0.0893
vt 0.4167 0.0893
vt 0.3333 0.0893
vt 0.2500 0.0893
vt 0.1667 0.0893
vt 0.0833 0.0893
vt 0.0000 0.0893
vt 1.0000 0.2143
vt 0.9167 0.2143
vt 0.8333 0.2143
vt 0.7500 0.2143
vt 0.6667 0.2143
vt 0.5833 0.2143
vt 0.5000 0.2143
vt 0.4167 0.2143
vt 0.3333 0.2143
vt 0.2500 0.2143
vt 0.1667 0.2143
vt 0.0833 0.2143
vt 0.0000 0.2143
vt 1.0000 0.3929
vt 0.9167 0.3929
vt 0.8333 0.3929
vt 0.7500 0.3929
vt 0.6667 0.3929
vt 0.5833 0.3929
vt 0.5000 0.3929
vt 0.4167 0.3929
vt 0.3333 0.3929
vt 0.2500 0.3929
vt 0.1667 0.3929
vt 0.0833 0.3929
vt 0.0000 0.3929
vt 1.0000 0.5714
vt 0.9167 0.5714
vt 0.8333 0.5714
vt 0.7500 0.5714
vt 0.6667 0.5714
vt 0.5833 0.5714
vt 0.5000 0.5714
vt 0.4167 0.5714
vt 0.3333 0.5714
vt 0.2500 0.5714
vt 0.1667 0.5714
vt 0.0833 0.5714
vt 0.0000 0.5714
vt 1.0000 0.7143
vt 0.9167 0.7143
vt 0.8333 0.7143
vt 0.7500 0.7143
vt 0.6667 0.7143
vt 0.5833 0.7143
vt 0.5000 0.7143
vt 0.4167 0.7143
vt 0.3333 0.7143
vt 0.2500 0.7143
vt 0.1667 0.7143
vt 0.0833 0.7143
vt 0.0000 0.7143
vt 1.0000 0.8393
vt 0.9167 0.8393
vt 0.8333 0.8393
vt 0.7500 0.8393
vt 0.6667 0.8393
vt 0.5833 0.8393
vt 0.5000 0.8393
vt 0.4167 0.8393
vt 0.3333 0.8393
vt 0.2500 0.8393
vt 0.1667 0.8393
vt 0.0833 0.8393
vt 0.0000 0.8393
vt 1.0000 0.9286
vt 0.9167 0.9286
vt 0.8333 0.9286
vt 0.7500 0.9286
vt 0.6667 0.9286
vt 0.5833 0.9286
vt 0.5000 0.9286
vt 0.4167 0.9286
vt 0.3333 0.9286
vt 0.2500 0.9286
vt 0.1667 0.9286
vt 0.0833 0.9286
vt 0.0000 0.9286
vt 0.5000 0.0100
vt 0.5000 0.9900
vn 0.3041 -0.9520 0.0352
vn 0.2458 -0.9520 0.1825
vn 0.1216 -0.9520 0.2809
vn -0.0352 -0.9520 0.3041
vn -0.1825 -0.9520 0.2458
vn -0.2809 -0.9520 0.1216
vn -0.3041 -0.9520 -0.0352
vn -0.2458 -0.9520 -0.1825
vn -0.1216 -0.9520 -0.2809
vn 0.0352 -0.9520 -0.3041
vn 0.1825 -0.9520 -0.2458
vn 0.2809 -0.9520 -0.1216
vn 0.6154 -0.7874 0.0352
vn 0.5153 -0.7874 0.3381
vn 0.2772 -0.7874 0.5505
vn -0.0352 -0.7874 0.6154
vn -0.3381 -0.7874 0.5153
vn -0.5505 -0.7874 0.2772
vn -0.6154 -0.7874 -0.0352
vn -0.5153 -0.7874 -0.3381
vn -0.2772 -0.7874 -0.5505
vn 0.0352 -0.7874 -0.6154
vn 0.3381 -0.7874 -0.5153
vn 0.5505 -0.7874 -0.2772
vn 0.9001 -0.4348 0.0272
vn 0.7659 -0.4348 0.4736
vn 0.4265 -0.4348 0.7931
vn -0.0272 -0.4348 0.9001
vn -0.4736 -0.4348 0.7659
vn -0.7931 -0.4348 0.4265
vn -0.9001 -0.4348 -0.0272
vn -0.7659 -0.4348 -0.4736
vn -0.4265 -0.4348 -0.7931
vn 0.0272 -0.4348 -0.9001
vn 0.4736 -0.4348 -0.7659
vn 0.7931 -0.4348 -0.4265
vn 0.9988 -0.0487 0.0017
vn 0.8642 -0.0487 0.5008
vn 0.4980 -0.0487 0.8658
vn -0.0017 -0.0487 0.9988
vn -0.5008 -0.0487 0.8642
vn -0.8658 -0.0487 0.4980
vn -0.9988 -0.0487 -0.0017
vn -0.8642 -0.0487 -0.5008
vn -0.4980 -0.0487 -0.8658
vn 0.0017 -0.0487 -0.9988
vn 0.5008 -0.0487 -0.8642
vn 0.8658 -0.0487 -0.4980
vn 0.9578 0.2868 -0.0183
vn 0.8387 0.2868 0.4630
vn 0.4948 0.2868 0.8203
vn 0.0183 0.2868 0.9578
vn -0.4630 0.2868 0.8387
vn -0.8203 0.2868 0.4948
vn -0.9578 0.2868 0.0183
vn -0.8387 0.2868 -0.4630
vn -0.4948 0.2868 -0.8203
vn -0.0183 0.2868 -0.9578
vn 0.4630 0.2868 -0.8387
vn 0.8203 0.2868 -0.4948
vn 0.8371 0.5467 -0.0220
vn 0.7359 0.5467 0.3995
vn 0.4376 0.5467 0.7139
vn 0.0220 0.5467 0.8371
vn -0.3995 0.5467 0.7359
vn -0.7139 0.5467 0.4376
vn -0.8371 0.5467 0.0220
vn -0.7359 0.5467 -0.3995
vn -0.4376 0.5467 -0.7139
vn -0.0220 0.5467 -0.8371
vn 0.3995 0.5467 -0.7359
vn 0.7139 0.5467 -0.4376
vn 0.6899 0.7231 -0.0346
vn 0.6148 0.7231 0.3150
vn 0.3749 0.7231 0.5802
vn 0.0346 0.7231 0.6899
vn -0.3150 0.7231 0.6148
vn -0.5802 0.7231 0.3749
vn -0.6899 0.7231 0.0346
vn -0.6148 0.7231 -0.3150
vn -0.3749 0.7231 -0.5802
vn -0.0346 0.7231 -0.6899
vn 0.3150 0.7231 -0.6148
vn 0.5802 0.7231 -0.3749
vn 0.5171 0.8547 -0.0458
vn 0.4707 0.8547 0.2189
vn 0.2982 0.8547 0.4249
vn 0.0458 0.8547 0.5171
vn -0.2189 0.8547 0.4707
vn -0.4249 0.8547 0.2982
vn -0.5171 0.8547 0.0458
vn -0.4707 0.8547 -0.2189
vn -0.2982 0.8547 -0.4249
vn -0.0458 0.8547 -0.5171
vn 0.2189 0.8547 -0.4707
vn 0.4249 0.8547 -0.2982
vn -0.0000 -1.0000 0.0000
vn -0.0000 1.0000 0.0000
f 1/1/1 14/15/14 2/2/2
f 1/1/1 13/14/13 14/15/14
f 2/2/2 15/16/15 3/3/3
f 2/2/2 14/15/14 15/16/15
f 3/3/3 16/17/16 4/4/4
f 3/3/3 15/16/15 16/17/16
f 4/4/4 17/18/17 5/5/5
f 4/4/4 16/17/16 17/18/17
f 5/5/5 18/19/18 6/6/6
f 5/5/5 17/18/17 18/19/18
f 6/6/6 19/20/19 7/7/7
f 6/6/6 18/19/18 19/20/19
f 7/7/7 20/21/20 8/8/8
f 7/7/7 19/20/19 20/21/20
f 8/8/8 21/22/21 9/9/9
f 8/8/8 20/21/20 21/22/21
f 9/9/9 22/23/22 10/10/10
f 9/9/9 21/22/21 22/23/22
f 10/10/10 23/24/23 11/11/11
f 10/10/10 22/23/22 23/24/23
f 11/11/11 24/25/24 12/12/12
f 11/11/11 23/24/23 24/25/24
f 12/12/12 13/26/13 1/13/1
f 12/12/12 24/25/24 13/26/13
f 13/14/13 26/28/26 14/15/14
f 13/14/13 25/27/25 26/28/26
f 14/15/14 27/29/27 15/16/15
f 14/15/14 26/28/26 27/29/27
f 15/16/15 28/30/28 16/17/16
f 15/16/15 27/29/27 28/30/28
f 16/17/16 29/31/29 17/18/17
f 16/17/16 28/30/28 29/31/29
f 17/18/17 30/32/30 18/19/18
f 17/18/17 29/31/29 30/32/30
f 18/19/18 31/33/31 19/20/19
f 18/19/18 30/32/30 31/33/31
f 19/20/19 32/34/32 20/21/20
f 19/20/19 31/33/31 32/34/32
f 20/21/20 33/35/33 21/22/21
f 20/21/20 32/34/32 33/35/33
f 21/22/21 34/36/34 22/23/22
f 21/22/21 33/35/33 34/36/34
f 22/23/22 35/37/35 23/24/23
f 22/23/22 34/36/34 35/37/35
f 23/24/23 36/38/36 24/25/24
f 23/24/23 35/37/35 36/38/36
f 24/25/24 25/39/25 13/26/13
f 24/25/24 36/38/36 25/39/25
f 25/27/25 38/41/38 26/28/26
f 25/27/25 37/40/37 38/41/38
f 26/28/26 39/42/39 27/29/27
f 26/28/26 38/41/38 39/42/39
f 27/29/27 40/43/40 28/30/28
f 27/29/27 39/42/39 40/43/40
f 28/30/28 41/44/41 29/31/29
f 28/30/28 40/43/40 41/44/41
f 29/31/29 42/45/42 30/32/30
f 29/31/29 41/44/41 42/45/42
f 30/32/30 43/46/43 31/33/31
f 30/32/30 42/45/42 43/46/43
f 31/33/31 44/47/44 32/34/32
f 31/33/31 43/46/43 44/47/44
f 32/34/32 45/48/45 33/35/33
f 32/34/32 44/47/44 45/48/45
f 33/35/33 46/49/46 34/36/34
f 33/35/33 45/48/45 46/49/46
f 34/36/34 47/50/47 35/37/35
f 34/36/34 46/49/46 47/50/47
f 35/37/35 48/51/48 36/38/36
f 35/37/35 47/50/47 48/51/48
f 36/38/36 37/52/37 25/39/25
f 36/38/36 48/51/48 37/52/37
f 37/40/37 50/54/50 38/41/38
f 37/40/37 49/53/49 50/54/50
f 38/41/38 51/55/51 39/42/39
f 38/41/38 50/54/50 51/55/51
f 39/42/39 52/56/52 40/43/40
f 39/42/39 51/55/51 52/56/52
f 40/43/40 53/57/53 41/44/41
f 40/43/40 52/56/52 53/57/53
f 41/44/41 54/58/54 42/45/42
f 41/44/41 53/57/53 54/58/54
f 42/45/42 55/59/55 43/46/43
f 42/45/42 54/58/54 55/59/55
f 43/46/43 56/60/56 44/47/44
f 43/46/43 55/59/55 56/60/56
f 44/47/44 57/61/57 45/48/45
f 44/47/44 56/60/56 57/61/57
f 45/48/45 58/62/58 46/49/46
f 45/48/45 57/61/57 58/62/58
f 46/49/46 59/63/59 47/50/47
f 46/49/46 58/62/58 59/63/59
f 47/50/47 60/64/60 48/51/48
f 47/50/47 59/63/59 60/64/60
f 48/51/48 49/65/49 37/52/37
f 48/51/48 60/64/60 49/65/49
f 49/53/49 62/67/62 50/54/50
f 49/53/49 61/66/61 62/67/62
f 50/54/50 63/68/63 51/55/51
f 50/54/50 62/67/62 63/68/63
f 51/55/51 64/69/64 52/56/52
f 51/55/51 63/68/63 64/69/64
f 52/56/52 65/70/65 53/57/53
f 52/56/52 64/69/64 65/70/65
f 53/57/53 66/71/66 54/58/54
f 53/57/53 65/70/65 66/71/66
f 54/58/54 67/72/67 55/59/55
f 54/58/54 66/71/66 67/72/67
f 55/59/55 68/73/68 56/60/56
f 55/59/55 67/72/67 68/73/68
f 56/60/56 69/74/69 57/61/57
f 56/60/56 68/73/68 69/74/69
f 57/61/57 70/75/70 58/62/58
f 57/61/57 69/74/69 70/75/70
f 58/62/58 71/76/71 59/63/59
f 58/62/58 70/75/70 71/76/71
f 59/63/59 72/77/72 60/64/60
f 59/63/59 71/76/71 72/77/72
f 60/64/60 61/78/61 49/65/49
f 60/64/60 72/77/72 61/78/61
f 61/66/61 74/80/74 62/67/62
f 61/66/61 73/79/73 74/80/74
f 62/67/62 75/81/75 63/68/63
f 62/67/62 74/80/74 75/81/75
f 63/68/63 76/82/76 64/69/64
f 63/68/63 75/81/75 76/82/76
f 64/69/64 77/83/77 65/70/65
f 64/69/64 76/82/76 77/83/77
f 65/70/65 78/84/78 66/71/66
f 65/70/65 77/83/77 78/84/78
f 66/71/66 79/85/79 67/72/67
f 66/71/66 78/84/78 79/85/79
f 67/72/67 80/86/80 68/73/68
f 67/72/67 79/85/79 80/86/80
f 68/73/68 81/87/81 69/74/69
f 68/73/68 80/86/80 81/87/81
f 69/74/69 82/88/82 70/75/70
f 69/74/69 81/87/81 82/88/82
f 70/75/70 83/89/83 71/76/71
f 70/75/70 82/88/82 83/89/83
f 71/76/71 84/90/84 72/77/72
f 71/76/71 83/89/83 84/90/84
f 72/77/72 73/91/73 61/78/61
f 72/77/72 84/90/84 73/91/73
f 73/79/73 86/93/86 74/80/74
f 73/79/73 85/92/85 86/93/86
f 74/80/74 87/94/87 75/81/75
f 74/80/74 86/93/86 87/94/87
f 75/81/75 88/95/88 76/82/76
f 75/81/75 87/94/87 88/95/88
f 76/82/76 89/96/89 77/83/77
f 76/82/76 88/95/88 89/96/89
f 77/83/77 90/97/90 78/84/78
f 77/83/77 89/96/89 90/97/90
f 78/84/78 91/98/91 79/85/79
f 78/84/78 90/97/90 91/98/91
f 79/85/79 92/99/92 80/86/80
f 79/85/79 91/98/91 92/99/92
f 80/86/80 93/100/93 81/87/81
f 80/86/80 92/99/92 93/100/93
f 81/87/81 94/101/94 82/88/82
f 81/87/81 93/100/93 94/101/94
f 82/88/82 95/102/95 83/89/83
f 82/88/82 94/101/94 95/102/95
f 83/89/83 96/103/96 84/90/84
f 83/89/83 95/102/95 96/103/96
f 84/90/84 85/104/85 73/91/73
f 84/90/84 96/103/96 85/104/85
f 2/2/2 97/105/97 1/1/1
f 85/92/85 98/106/98 86/93/86
f 3/3/3 97/105/97 2/2/2
f 86/93/86 98/106/98 87/94/87
f 4/4/4 97/105/97 3/3/3
f 87/94/87 98/106/98 88/95/88
f 5/5/5 97/105/97 4/4/4
f 88/95/88 98/106/98 89/96/89
f 6/6/6 97/105/97 5/5/5
f 89/96/89 98/106/98 90/97/90
f 7/7/7 97/105/97 6/6/6
f 90/97/90 98/106/98 91/98/91
f 8/8/8 97/105/97 7/7/7
f 91/98/91 98/106/98 92/99/92
f 9/9/9 97/105/97 8/8/8
f 92/99/92 98/106/98 93/100/93
f 10/10/10 97/105/97 9/9/9
f 93/100/93 98/106/98 94/101/94
f 11/11/11 97/105/97 10/10/10
f 94/101/94 98/106/98 95/102/95
f 12/12/12 97/105/97 11/11/11
f 95/102/95 98/106/98 96/103/96
f 1/13/1 97/105/97 12/12/12
f 96/103/96 98/106/98 85/104/85
