mtllib choc_chips_bag.mtl
o choc_chips_bag
usemtl choc_chips_bag_mat
v 0.4000 0.0000 0.0110
v 0.3360 0.0000 0.0190
v -0.3360 0.0000 0.0190
v -0.4000 0.0000 0.0110
v -0.4000 0.0000 -0.0110
v -0.3360 0.0000 -0.0190
v 0.3360 0.0000 -0.0190
v 0.4000 0.0000 -0.0110
v 0.4500 0.0600 0.0495
v 0.3780 0.0600 0.0855
v -0.3780 0.0600 0.0855
v -0.4500 0.0600 0.0495
v -0.4500 0.0600 -0.0495
v -0.3780 0.0600 -0.0855
v 0.3780 0.0600 -0.0855
v 0.4500 0.0600 -0.0495
v 0.5000 0.3000 0.1045
v 0.4200 0.3000 0.1805
v -0.4200 0.3000 0.1805
v -0.5000 0.3000 0.1045
v -0.5000 0.3000 -0.1045
v -0.4200 0.3000 -0.1805
v 0.4200 0.3000 -0.1805
v 0.5000 0.3000 -0.1045
v 0.5100 0.7000 0.1155
v 0.4284 0.7000 0.1995
v -0.4284 0.7000 0.1995
v -0.5100 0.7000 0.1155
v -0.5100 0.7000 -0.1155
v -0.4284 0.7000 -0.1995
v 0.4284 0.7000 -0.1995
v 0.5100 0.7000 -0.1155
v 0.5000 1.0500 0.0935
v 0.4200 1.0500 0.1615
v -0.4200 1.0500 0.1615
v -0.5000 1.0500 0.0935
v -0.5000 1.0500 -0.0935
v -0.4200 1.0500 -0.1615
v 0.4200 1.0500 -0.1615
v 0.5000 1.0500 -0.0935
v 0.4750 1.2500 0.0440
v 0.3990 1.2500 0.0760
v -0.3990 1.2500 0.0760
v -0.4750 1.2500 0.0440
v -0.4750 1.2500 -0.0440
v -0.3990 1.2500 -0.0760
v 0.3990 1.2500 -0.0760
v 0.4750 1.2500 -0.0440
v 0.4500 1.3800 0.0110
v 0.3780 1.3800 0.0190
v -0.3780 1.3800 0.0190
v -0.4500 1.3800 0.0110
v -0.4500 1.3800 -0.0110
v -0.3780 1.3800 -0.0190
v 0.3780 1.3800 -0.0190
v 0.4500 1.3800 -0.0110
v 0.0000 0.0000 0.0000
v 0.0000 1.3800 0.0000
vt 1.0000 0.0000
vt 0.9560 0.0000
vt 0.6295 0.0000
vt 0.5855 0.0000
vt 0.5000 0.0000
vt 0.4560 0.0000
vt 0.1295 0.0000
vt 0.0855 0.0000
vt 0.0000 0.0000
vt 1.0000 0.0435
vt 0.9560 0.0435
vt 0.6295 0.0435
vt 0.5855 0.0435
vt 0.5000 0.0435
vt 0.4560 0.0435
vt 0.1295 0.0435
vt 0.0855 0.0435
vt 0.0000 0.0435
vt 1.0000 0.2174
vt 0.9560 0.2174
vt 0.6295 0.2174
vt 0.5855 0.2174
vt 0.5000 0.2174
vt 0.4560 0.2174
vt 0.1295 0.2174
vt 0.0855 0.2174
vt 0.0000 0.2174
vt 1.0000 0.5072
vt 0.9560 0.5072
vt 0.6295 0.5072
vt 0.5855 0.5072
vt 0.5000 0.5072
vt 0.4560 0.5072
vt 0.1295 0.5072
vt 0.0855 0.5072
vt 0.0000 0.5072
vt 1.0000 0.7609
vt 0.9560 0.7609
vt 0.6295 0.7609
vt 0.5855 0.7609
vt 0.5000 0.7609
vt 0.4560 0.7609
vt 0.1295 0.7609
vt 0.0855 0.7609
vt 0.0000 0.7609
vt 1.0000 0.9058
vt 0.9560 0.9058
vt 0.6295 0.9058
vt 0.5855 0.9058
vt 0.5000 0.9058
vt 0.4560 0.9058
vt 0.1295 0.9058
vt 0.0855 0.9058
vt 0.0000 0.9058
vt 1.0000 1.0000
vt 0.9560 1.0000
vt 0.6295 1.0000
vt 0.5855 1.0000
vt 0.5000 1.0000
vt 0.4560 1.0000
vt 0.1295 1.0000
vt 0.0855 1.0000
vt 0.0000 1.0000
vt 0.5000 0.0100
vt 0.5000 0.9900
vn 0.1604 -0.9301 0.3304
vn 0.0033 -0.7922 0.6102
vn -0.0308 -0.8237 0.5662
vn -0.3325 -0.9286 0.1649
vn -0.1604 -0.9301 -0.3304
vn -0.0033 -0.7922 -0.6102
vn 0.0308 -0.8237 -0.5662
vn 0.3325 -0.9286 -0.1649
vn 0.7565 -0.4046 0.5139
vn 0.0224 -0.4351 0.9001
vn -0.0800 -0.5227 0.8487
vn -0.9025 -0.3493 0.2519
vn -0.7565 -0.4046 -0.5139
vn -0.0224 -0.4351 -0.9001
vn 0.0800 -0.5227 -0.8487
vn 0.9025 -0.3493 -0.2519
vn 0.9376 -0.1157 0.3279
vn 0.0597 -0.1363 0.9889
vn -0.0994 -0.2203 0.9704
vn -0.9659 -0.1126 0.2334
vn -0.9376 -0.1157 -0.3279
vn -0.0597 -0.1363 -0.9889
vn 0.0994 -0.2203 -0.9704
vn 0.9659 -0.1126 -0.2334
vn 0.9679 0.0068 0.2512
vn 0.0902 0.0465 0.9948
vn -0.0810 0.0040 0.9967
vn -0.9628 0.0018 0.2702
vn -0.9679 0.0068 -0.2512
vn -0.0902 0.0465 -0.9948
vn 0.0810 0.0040 -0.9967
vn 0.9628 0.0018 -0.2702
vn 0.9627 0.1021 0.2505
vn 0.0925 0.2583 0.9616
vn -0.0524 0.1826 0.9818
vn -0.9275 0.1023 0.3594
vn -0.9627 0.1021 -0.2505
vn -0.0925 0.2583 -0.9616
vn 0.0524 0.1826 -0.9818
vn 0.9275 0.1023 -0.3594
vn 0.8878 0.2414 0.3918
vn 0.0550 0.3973 0.9161
vn -0.0229 0.3949 0.9184
vn -0.7719 0.2904 0.5656
vn -0.8878 0.2414 -0.3918
vn -0.0550 0.3973 -0.9161
vn 0.0229 0.3949 -0.9184
vn 0.7719 0.2904 -0.5656
vn 0.5766 0.7374 0.3518
vn 0.0381 0.5083 0.8604
vn -0.0044 0.4669 0.8843
vn -0.2632 0.7321 0.6282
vn -0.5766 0.7374 -0.3518
vn -0.0381 0.5083 -0.8604
vn 0.0044 0.4669 -0.8843
vn 0.2632 0.7321 -0.6282
vn 0.0000 -1.0000 0.0000
vn 0.0000 1.0000 0.0000
f 1/1/1 10/11/10 2/2/2
f 1/1/1 9/10/9 10/11/10
f 2/2/2 11/12/11 3/3/3
f 2/2/2 10/11/10 11/12/11
f 3/3/3 12/13/12 4/4/4
f 3/3/3 11/12/11 12/13/12
f 4/4/4 13/14/13 5/5/5
f 4/4/4 12/13/12 13/14/13
f 5/5/5 14/15/14 6/6/6
f 5/5/5 13/14/13 14/15/14
f 6/6/6 15/16/15 7/7/7
f 6/6/6 14/15/14 15/16/15
f 7/7/7 16/17/16 8/8/8
f 7/7/7 15/16/15 16/17/16
f 8/8/8 9/18/9 1/9/1
f 8/8/8 16/17/16 9/18/9
f 9/10/9 18/20/18 10/11/10
f 9/10/9 17/19/17 18/20/18
f 10/11/10 19/21/19 11/12/11
f 10/11/10 18/20/18 19/21/19
f 11/12/11 20/22/20 12/13/12
f 11/12/11 19/21/19 20/22/20
f 12/13/12 21/23/21 13/14/13
f 12/13/12 20/22/20 21/23/21
f 13/14/13 22/24/22 14/15/14
f 13/14/13 21/23/21 22/24/22
f 14/15/14 23/25/23 15/16/15
f 14/15/14 22/24/22 23/25/23
f 15/16/15 24/26/24 16/17/16
f 15/16/15 23/25/23 24/26/24
f 16/17/16 17/27/17 9/18/9
f 16/17/16 24/26/24 17/27/17
f 17/19/17 26/29/26 18/20/18
f 17/19/17 25/28/25 26/29/26
f 18/20/18 27/30/27 19/21/19
f 18/20/18 26/29/26 27/30/27
f 19/21/19 28/31/28 20/22/20
f 19/21/19 27/30/27 28/31/28
f 20/22/20 29/32/29 21/23/21
f 20/22/20 28/31/28 29/32/29
f 21/23/21 30/33/30 22/24/22
f 21/23/21 29/32/29 30/33/30
f 22/24/22 31/34/31 23/25/23
f 22/24/22 30/33/30 31/34/31
f 23/25/23 32/35/32 24/26/24
f 23/25/23 31/34/31 32/35/32
f 24/26/24 25/36/25 17/27/17
f 24/26/24 32/35/32 25/36/25
f 25/28/25 34/38/34 26/29/26
f 25/28/25 33/37/33 34/38/34
f 26/29/26 35/39/35 27/30/27
f 26/29/26 34/38/34 35/39/35
f 27/30/27 36/40/36 28/31/28
f 27/30/27 35/39/35 36/40/36
f 28/31/28 37/41/37 29/32/29
f 28/31/28 36/40/36 37/41/37
f 29/32/29 38/42/38 30/33/30
f 29/32/29 37/41/37 38/42/38
f 30/33/30 39/43/39 31/34/31
f 30/33/30 38/42/38 39/43/39
f 31/34/31 40/44/40 32/35/32
f 31/34/31 39/43/39 40/44/40
f 32/35/32 33/45/33 25/36/25
f 32/35/32 40/44/40 33/45/33
f 33/37/33 42/47/42 34/38/34
f 33/37/33 41/46/41 42/47/42
f 34/38/34 43/48/43 35/39/35
f 34/38/34 42/47/42 43/48/43
f 35/39/35 44/49/44 36/40/36
f 35/39/35 43/48/43 44/49/44
f 36/40/36 45/50/45 37/41/37
f 36/40/36 44/49/44 45/50/45
f 37/41/37 46/51/46 38/42/38
f 37/41/37 45/50/45 46/51/46
f 38/42/38 47/52/47 39/43/39
f 38/42/38 46/51/46 47/52/47
f 39/43/39 48/53/48 40/44/40
f 39/43/39 47/52/47 48/53/48
f 40/44/40 41/54/41 33/45/33
f 40/44/40 48/53/48 41/54/41
f 41/46/41 50/56/50 42/47/42
f 41/46/41 49/55/49 50/56/50
f 42/47/42 51/57/51 43/48/43
f 42/47/42 50/56/50 51/57/51
f 43/48/43 52/58/52 44/49/44
f 43/48/43 51/57/51 52/58/52
f 44/49/44 53/59/53 45/50/45
f 44/49/44 52/58/52 53/59/53
f 45/50/45 54/60/54 46/51/46
f 45/50/45 53/59/53 54/60/54
f 46/51/46 55/61/55 47/52/47
f 46/51/46 54/60/54 55/61/55
f 47/52/47 56/62/56 48/53/48
f 47/52/47 55/61/55 56/62/56
f 48/53/48 49/63/49 41/54/41
f 48/53/48 56/62/56 49/63/49
f 2/2/2 57/64/57 1/1/1
f 49/55/49 58/65/58 50/56/50
f 3/3/3 57/64/57 2/2/2
f 50/56/50 58/65/58 51/57/51
f 4/4/4 57/64/57 3/3/3
f 51/57/51 58/65/58 52/58/52
f 5/5/5 57/64/57 4/4/4
f 52/58/52 58/65/58 53/59/53
f 6/6/6 57/64/57 5/5/5
f 53/59/53 58/65/58 54/60/54
f 7/7/7 57/64/57 6/6/6
f 54/60/54 58/65/58 55/61/55
f 8/8/8 57/64/57 7/7/7
f 55/61/55 58/65/58 56/62/56
f 1/9/1 57/64/57 8/8/8
f 56/62/56 58/65/58 49/63/49
