mtllib flour_sack.mtl
o FlourSack
usemtl Burlap
v 0.4200 0.0000 0.0000
v 0.3637 0.0000 0.2100
v 0.2100 0.0000 0.3637
v 0.0000 0.0000 0.4200
v -0.2100 0.0000 0.3637
v -0.3637 0.0000 0.2100
v -0.4200 0.0000 0.0000
v -0.3637 0.0000 -0.2100
v -0.2100 0.0000 -0.3637
v -0.0000 0.0000 -0.4200
v 0.2100 0.0000 -0.3637
v 0.3637 0.0000 -0.2100
v 0.6000 0.0600 0.0000
v 0.5196 0.0600 0.3000
v 0.3000 0.0600 0.5196
v 0.0000 0.0600 0.6000
v -0.3000 0.0600 0.5196
v -0.5196 0.0600 0.3000
v -0.6000 0.0600 0.0000
v -0.5196 0.0600 -0.3000
v -0.3000 0.0600 -0.5196
v -0.0000 0.0600 -0.6000
v 0.3000 0.0600 -0.5196
v 0.5196 0.0600 -0.3000
v 0.7200 0.3500 0.0000
v 0.6235 0.3500 0.3600
v 0.3600 0.3500 0.6235
v 0.0000 0.3500 0.7200
v -0.3600 0.3500 0.6235
v -0.6235 0.3500 0.3600
v -0.7200 0.3500 0.0000
v -0.6235 0.3500 -0.3600
v -0.3600 0.3500 -0.6235
v -0.0000 0.3500 -0.7200
v 0.3600 0.3500 -0.6235
v 0.6235 0.3500 -0.3600
v 0.7400 0.7000 0.0000
v 0.6409 0.7000 0.3700
v 0.3700 0.7000 0.6409
v 0.0000 0.7000 0.7400
v -0.3700 0.7000 0.6409
v -0.6409 0.7000 0.3700
v -0.7400 0.7000 0.0000
v -0.6409 0.7000 -0.3700
v -0.3700 0.7000 -0.6409
v -0.0000 0.7000 -0.7400
v 0.3700 0.7000 -0.6409
v 0.6409 0.7000 -0.3700
v 0.6600 1.0500 0.0000
v 0.5716 1.0500 0.3300
v 0.3300 1.0500 0.5716
v 0.0000 1.0500 0.6600
v -0.3300 1.0500 0.5716
v -0.5716 1.0500 0.3300
v -0.6600 1.0500 0.0000
v -0.5716 1.0500 -0.3300
v -0.3300 1.0500 -0.5716
v -0.0000 1.0500 -0.6600
v 0.3300 1.0500 -0.5716
v 0.5716 1.0500 -0.3300
v 0.5200 1.3000 0.0000
v 0.4503 1.3000 0.2600
v 0.2600 1.3000 0.4503
v 0.0000 1.3000 0.5200
v -0.2600 1.3000 0.4503
v -0.4503 1.3000 0.2600
v -0.5200 1.3000 0.0000
v -0.4503 1.3000 -0.2600
v -0.2600 1.3000 -0.4503
v -0.0000 1.3000 -0.5200
v 0.2600 1.3000 -0.4503
v 0.4503 1.3000 -0.2600
v 0.3000 1.4500 0.0000
v 0.2598 1.4500 0.1500
v 0.1500 1.4500 0.2598
v 0.0000 1.4500 0.3000
v -0.1500 1.4500 0.2598
v -0.2598 1.4500 0.1500
v -0.3000 1.4500 0.0000
v -0.2598 1.4500 -0.1500
v -0.1500 1.4500 -0.2598
v -0.0000 1.4500 -0.3000
v 0.1500 1.4500 -0.2598
v 0.2598 1.4500 -0.1500
v 0.3800 1.5500 0.0000
v 0.3291 1.5500 0.1900
v 0.1900 1.5500 0.3291
v 0.0000 1.5500 0.3800
v -0.1900 1.5500 0.3291
v -0.3291 1.5500 0.1900
v -0.3800 1.5500 0.0000
v -0.3291 1.5500 -0.1900
v -0.1900 1.5500 -0.3291
v -0.0000 1.5500 -0.3800
v 0.1900 1.5500 -0.3291
v 0.3291 1.5500 -0.1900
v 0.2200 1.7000 0.0000
v 0.1905 1.7000 0.1100
v 0.1100 1.7000 0.1905
v 0.0000 1.7000 0.2200
v -0.1100 1.7000 0.1905
v -0.1905 1.7000 0.1100
v -0.2200 1.7000 0.0000
v -0.1905 1.7000 -0.1100
v -0.1100 1.7000 -0.1905
v -0.0000 1.7000 -0.2200
v 0.1100 1.7000 -0.1905
v 0.1905 1.7000 -0.1100
v 0.0600 1.8000 0.0000
v 0.0520 1.8000 0.0300
v 0.0300 1.8000 0.0520
v 0.0000 1.8000 0.0600
v -0.0300 1.8000 0.0520
v -0.0520 1.8000 0.0300
v -0.0600 1.8000 0.0000
v -0.0520 1.8000 -0.0300
v -0.0300 1.8000 -0.0520
v -0.0000 1.8000 -0.0600
v 0.0300 1.8000 -0.0520
v 0.0520 1.8000 -0.0300
v 0.0000 0.0000 0.0000
v 0.0000 1.8600 0.0000
vn 0.1398 -0.9901 0.0156
vn 0.1132 -0.9901 0.0834
vn 0.0564 -0.9901 0.1288
vn -0.0156 -0.9901 0.1398
vn -0.0834 -0.9901 0.1132
vn -0.1288 -0.9901 0.0564
vn -0.1398 -0.9901 -0.0156
vn -0.1132 -0.9901 -0.0834
vn -0.0564 -0.9901 -0.1288
vn 0.0156 -0.9901 -0.1398
vn 0.0834 -0.9901 -0.1132
vn 0.1288 -0.9901 -0.0564
vn 0.7802 -0.6227 0.0587
vn 0.6463 -0.6227 0.4409
vn 0.3393 -0.6227 0.7050
vn -0.0587 -0.6227 0.7802
vn -0.4409 -0.6227 0.6463
vn -0.7050 -0.6227 0.3393
vn -0.7802 -0.6227 -0.0587
vn -0.6463 -0.6227 -0.4409
vn -0.3393 -0.6227 -0.7050
vn 0.0587 -0.6227 -0.7802
vn 0.4409 -0.6227 -0.6463
vn 0.7050 -0.6227 -0.3393
vn 0.9779 -0.2082 0.0164
vn 0.8387 -0.2082 0.5032
vn 0.4747 -0.2082 0.8551
vn -0.0164 -0.2082 0.9779
vn -0.5032 -0.2082 0.8387
vn -0.8551 -0.2082 0.4747
vn -0.9779 -0.2082 -0.0164
vn -0.8387 -0.2082 -0.5032
vn -0.4747 -0.2082 -0.8551
vn 0.0164 -0.2082 -0.9779
vn 0.5032 -0.2082 -0.8387
vn 0.8551 -0.2082 -0.4747
vn 0.9965 0.0834 -0.0037
vn 0.8648 0.0834 0.4951
vn 0.5014 0.0834 0.8612
vn 0.0037 0.0834 0.9965
vn -0.4951 0.0834 0.8648
vn -0.8612 0.0834 0.5014
vn -0.9965 0.0834 0.0037
vn -0.8648 0.0834 -0.4951
vn -0.5014 0.0834 -0.8612
vn -0.0037 0.0834 -0.9965
vn 0.4951 0.0834 -0.8648
vn 0.8612 0.0834 -0.5014
vn 0.9412 0.3366 -0.0275
vn 0.8289 0.3366 0.4468
vn 0.4945 0.3366 0.8014
vn 0.0275 0.3366 0.9412
vn -0.4468 0.3366 0.8289
vn -0.8014 0.3366 0.4945
vn -0.9412 0.3366 0.0275
vn -0.8289 0.3366 -0.4468
vn -0.4945 0.3366 -0.8014
vn -0.0275 0.3366 -0.9412
vn 0.4468 0.3366 -0.8289
vn 0.8014 0.3366 -0.4945
vn 0.7609 0.6476 -0.0391
vn 0.6785 0.6476 0.3466
vn 0.4143 0.6476 0.6394
vn 0.0391 0.6476 0.7609
vn -0.3466 0.6476 0.6785
vn -0.6394 0.6476 0.4143
vn -0.7609 0.6476 0.0391
vn -0.6785 0.6476 -0.3466
vn -0.4143 0.6476 -0.6394
vn -0.0391 0.6476 -0.7609
vn 0.3466 0.6476 -0.6785
vn 0.6394 0.6476 -0.4143
vn 0.8450 0.5337 -0.0340
vn 0.7488 0.5337 0.3930
vn 0.4520 0.5337 0.7148
vn 0.0340 0.5337 0.8450
vn -0.3930 0.5337 0.7488
vn -0.7148 0.5337 0.4520
vn -0.8450 0.5337 0.0340
vn -0.7488 0.5337 -0.3930
vn -0.4520 0.5337 -0.7148
vn -0.0340 0.5337 -0.8450
vn 0.3930 0.5337 -0.7488
vn 0.7148 0.5337 -0.4520
vn 0.9618 0.2737 0.0031
vn 0.8314 0.2737 0.4835
vn 0.4783 0.2737 0.8345
vn -0.0031 0.2737 0.9618
vn -0.4835 0.2737 0.8314
vn -0.8345 0.2737 0.4783
vn -0.9618 0.2737 -0.0031
vn -0.8314 0.2737 -0.4835
vn -0.4783 0.2737 -0.8345
vn 0.0031 0.2737 -0.9618
vn 0.4835 0.2737 -0.8314
vn 0.8345 0.2737 -0.4783
vn 0.6329 0.7726 -0.0500
vn 0.5731 0.7726 0.2731
vn 0.3597 0.7726 0.5231
vn 0.0500 0.7726 0.6329
vn -0.2731 0.7726 0.5731
vn -0.5231 0.7726 0.3597
vn -0.6329 0.7726 0.0500
vn -0.5731 0.7726 -0.2731
vn -0.3597 0.7726 -0.5231
vn -0.0500 0.7726 -0.6329
vn 0.2731 0.7726 -0.5731
vn 0.5231 0.7726 -0.3597
vn 0.5542 0.8286 -0.0793
vn 0.5196 0.8286 0.2084
vn 0.3458 0.8286 0.4403
vn 0.0793 0.8286 0.5542
vn -0.2084 0.8286 0.5196
vn -0.4403 0.8286 0.3458
vn -0.5542 0.8286 0.0793
vn -0.5196 0.8286 -0.2084
vn -0.3458 0.8286 -0.4403
vn -0.0793 0.8286 -0.5542
vn 0.2084 0.8286 -0.5196
vn 0.4403 0.8286 -0.3458
vn 0.0000 -1.0000 0.0000
vn 0.0000 1.0000 0.0000
f 1//1 14//14 2//2
f 1//1 13//13 14//14
f 2//2 15//15 3//3
f 2//2 14//14 15//15
f 3//3 16//16 4//4
f 3//3 15//15 16//16
f 4//4 17//17 5//5
f 4//4 16//16 17//17
f 5//5 18//18 6//6
f 5//5 17//17 18//18
f 6//6 19//19 7//7
f 6//6 18//18 19//19
f 7//7 20//20 8//8
f 7//7 19//19 20//20
f 8//8 21//21 9//9
f 8//8 20//20 21//21
f 9//9 22//22 10//10
f 9//9 21//21 22//22
f 10//10 23//23 11//11
f 10//10 22//22 23//23
f 11//11 24//24 12//12
f 11//11 23//23 24//24
f 12//12 13//13 1//1
f 12//12 24//24 13//13
f 13//13 26//26 14//14
f 13//13 25//25 26//26
f 14//14 27//27 15//15
f 14//14 26//26 27//27
f 15//15 28//28 16//16
f 15//15 27//27 28//28
f 16//16 29//29 17//17
f 16//16 28//28 29//29
f 17//17 30//30 18//18
f 17//17 29//29 30//30
f 18//18 31//31 19//19
f 18//18 30//30 31//31
f 19//19 32//32 20//20
f 19//19 31//31 32//32
f 20//20 33//33 21//21
f 20//20 32//32 33//33
f 21//21 34//34 22//22
f 21//21 33//33 34//34
f 22//22 35//35 23//23
f 22//22 34//34 35//35
f 23//23 36//36 24//24
f 23//23 35//35 36//36
f 24//24 25//25 13//13
f 24//24 36//36 25//25
f 25//25 38//38 26//26
f 25//25 37//37 38//38
f 26//26 39//39 27//27
f 26//26 38//38 39//39
f 27//27 40//40 28//28
f 27//27 39//39 40//40
f 28//28 41//41 29//29
f 28//28 40//40 41//41
f 29//29 42//42 30//30
f 29//29 41//41 42//42
f 30//30 43//43 31//31
f 30//30 42//42 43//43
f 31//31 44//44 32//32
f 31//31 43//43 44//44
f 32//32 45//45 33//33
f 32//32 44//44 45//45
f 33//33 46//46 34//34
f 33//33 45//45 46//46
f 34//34 47//47 35//35
f 34//34 46//46 47//47
f 35//35 48//48 36//36
f 35//35 47//47 48//48
f 36//36 37//37 25//25
f 36//36 48//48 37//37
f 37//37 50//50 38//38
f 37//37 49//49 50//50
f 38//38 51//51 39//39
f 38//38 50//50 51//51
f 39//39 52//52 40//40
f 39//39 51//51 52//52
f 40//40 53//53 41//41
f 40//40 52//52 53//53
f 41//41 54//54 42//42
f 41//41 53//53 54//54
f 42//42 55//55 43//43
f 42//42 54//54 55//55
f 43//43 56//56 44//44
f 43//43 55//55 56//56
f 44//44 57//57 45//45
f 44//44 56//56 57//57
f 45//45 58//58 46//46
f 45//45 57//57 58//58
f 46//46 59//59 47//47
f 46//46 58//58 59//59
f 47//47 60//60 48//48
f 47//47 59//59 60//60
f 48//48 49//49 37//37
f 48//48 60//60 49//49
f 49//49 62//62 50//50
f 49//49 61//61 62//62
f 50//50 63//63 51//51
f 50//50 62//62 63//63
f 51//51 64//64 52//52
f 51//51 63//63 64//64
f 52//52 65//65 53//53
f 52//52 64//64 65//65
f 53//53 66//66 54//54
f 53//53 65//65 66//66
f 54//54 67//67 55//55
f 54//54 66//66 67//67
f 55//55 68//68 56//56
f 55//55 67//67 68//68
f 56//56 69//69 57//57
f 56//56 68//68 69//69
f 57//57 70//70 58//58
f 57//57 69//69 70//70
f 58//58 71//71 59//59
f 58//58 70//70 71//71
f 59//59 72//72 60//60
f 59//59 71//71 72//72
f 60//60 61//61 49//49
f 60//60 72//72 61//61
f 61//61 74//74 62//62
f 61//61 73//73 74//74
f 62//62 75//75 63//63
f 62//62 74//74 75//75
f 63//63 76//76 64//64
f 63//63 75//75 76//76
f 64//64 77//77 65//65
f 64//64 76//76 77//77
f 65//65 78//78 66//66
f 65//65 77//77 78//78
f 66//66 79//79 67//67
f 66//66 78//78 79//79
f 67//67 80//80 68//68
f 67//67 79//79 80//80
f 68//68 81//81 69//69
f 68//68 80//80 81//81
f 69//69 82//82 70//70
f 69//69 81//81 82//82
f 70//70 83//83 71//71
f 70//70 82//82 83//83
f 71//71 84//84 72//72
f 71//71 83//83 84//84
f 72//72 73//73 61//61
f 72//72 84//84 73//73
f 73//73 86//86 74//74
f 73//73 85//85 86//86
f 74//74 87//87 75//75
f 74//74 86//86 87//87
f 75//75 88//88 76//76
f 75//75 87//87 88//88
f 76//76 89//89 77//77
f 76//76 88//88 89//89
f 77//77 90//90 78//78
f 77//77 89//89 90//90
f 78//78 91//91 79//79
f 78//78 90//90 91//91
f 79//79 92//92 80//80
f 79//79 91//91 92//92
f 80//80 93//93 81//81
f 80//80 92//92 93//93
f 81//81 94//94 82//82
f 81//81 93//93 94//94
f 82//82 95//95 83//83
f 82//82 94//94 95//95
f 83//83 96//96 84//84
f 83//83 95//95 96//96
f 84//84 85//85 73//73
f 84//84 96//96 85//85
f 85//85 98//98 86//86
f 85//85 97//97 98//98
f 86//86 99//99 87//87
f 86//86 98//98 99//99
f 87//87 100//100 88//88
f 87//87 99//99 100//100
f 88//88 101//101 89//89
f 88//88 100//100 101//101
f 89//89 102//102 90//90
f 89//89 101//101 102//102
f 90//90 103//103 91//91
f 90//90 102//102 103//103
f 91//91 104//104 92//92
f 91//91 103//103 104//104
f 92//92 105//105 93//93
f 92//92 104//104 105//105
f 93//93 106//106 94//94
f 93//93 105//105 106//106
f 94//94 107//107 95//95
f 94//94 106//106 107//107
f 95//95 108//108 96//96
f 95//95 107//107 108//108
f 96//96 97//97 85//85
f 96//96 108//108 97//97
f 97//97 110//110 98//98
f 97//97 109//109 110//110
f 98//98 111//111 99//99
f 98//98 110//110 111//111
f 99//99 112//112 100//100
f 99//99 111//111 112//112
f 100//100 113//113 101//101
f 100//100 112//112 113//113
f 101//101 114//114 102//102
f 101//101 113//113 114//114
f 102//102 115//115 103//103
f 102//102 114//114 115//115
f 103//103 116//116 104//104
f 103//103 115//115 116//116
f 104//104 117//117 105//105
f 104//104 116//116 117//117
f 105//105 118//118 106//106
f 105//105 117//117 118//118
f 106//106 119//119 107//107
f 106//106 118//118 119//119
f 107//107 120//120 108//108
f 107//107 119//119 120//120
f 108//108 109//109 97//97
f 108//108 120//120 109//109
f 2//2 121//121 1//1
f 3//3 121//121 2//2
f 4//4 121//121 3//3
f 5//5 121//121 4//4
f 6//6 121//121 5//5
f 7//7 121//121 6//6
f 8//8 121//121 7//7
f 9//9 121//121 8//8
f 10//10 121//121 9//9
f 11//11 121//121 10//10
f 12//12 121//121 11//11
f 1//1 121//121 12//12
f 109//109 122//122 110//110
f 110//110 122//122 111//111
f 111//111 122//122 112//112
f 112//112 122//122 113//113
f 113//113 122//122 114//114
f 114//114 122//122 115//115
f 115//115 122//122 116//116
f 116//116 122//122 117//117
f 117//117 122//122 118//118
f 118//118 122//122 119//119
f 119//119 122//122 120//120
f 120//120 122//122 109//109
