mtllib flour_bag.mtl
o FlourBag
usemtl BagPaper
v 0.7050 0.0000 0.2491
v 0.5546 0.0000 0.3995
v -0.5546 0.0000 0.3995
v -0.7050 0.0000 0.2491
v -0.7050 0.0000 -0.2491
v -0.5546 0.0000 -0.3995
v 0.5546 0.0000 -0.3995
v 0.7050 0.0000 -0.2491
v 0.7500 0.0800 0.2650
v 0.5900 0.0800 0.4250
v -0.5900 0.0800 0.4250
v -0.7500 0.0800 0.2650
v -0.7500 0.0800 -0.2650
v -0.5900 0.0800 -0.4250
v 0.5900 0.0800 -0.4250
v 0.7500 0.0800 -0.2650
v 0.7650 0.6000 0.2756
v 0.6018 0.6000 0.4420
v -0.6018 0.6000 0.4420
v -0.7650 0.6000 0.2756
v -0.7650 0.6000 -0.2756
v -0.6018 0.6000 -0.4420
v 0.6018 0.6000 -0.4420
v 0.7650 0.6000 -0.2756
v 0.7650 1.2000 0.2756
v 0.6018 1.2000 0.4420
v -0.6018 1.2000 0.4420
v -0.7650 1.2000 0.2756
v -0.7650 1.2000 -0.2756
v -0.6018 1.2000 -0.4420
v 0.6018 1.2000 -0.4420
v 0.7650 1.2000 -0.2756
v 0.7500 1.5500 0.2571
v 0.5900 1.5500 0.4123
v -0.5900 1.5500 0.4123
v -0.7500 1.5500 0.2571
v -0.7500 1.5500 -0.2571
v -0.5900 1.5500 -0.4123
v 0.5900 1.5500 -0.4123
v 0.7500 1.5500 -0.2571
v 0.7425 1.7500 0.1908
v 0.5841 1.7500 0.3060
v -0.5841 1.7500 0.3060
v -0.7425 1.7500 0.1908
v -0.7425 1.7500 -0.1908
v -0.5841 1.7500 -0.3060
v 0.5841 1.7500 -0.3060
v 0.7425 1.7500 -0.1908
v 0.7350 1.9000 0.1113
v 0.5782 1.9000 0.1785
v -0.5782 1.9000 0.1785
v -0.7350 1.9000 0.1113
v -0.7350 1.9000 -0.1113
v -0.5782 1.9000 -0.1785
v 0.5782 1.9000 -0.1785
v 0.7350 1.9000 -0.1113
v 0.7275 2.0000 0.0424
v 0.5723 2.0000 0.0680
v -0.5723 2.0000 0.0680
v -0.7275 2.0000 0.0424
v -0.7275 2.0000 -0.0424
v -0.5723 2.0000 -0.0680
v 0.5723 2.0000 -0.0680
v 0.7275 2.0000 -0.0424
v 0.7200 2.0600 0.0106
v 0.5664 2.0600 0.0170
v -0.5664 2.0600 0.0170
v -0.7200 2.0600 0.0106
v -0.7200 2.0600 -0.0106
v -0.5664 2.0600 -0.0170
v 0.5664 2.0600 -0.0170
v 0.7200 2.0600 -0.0106
v 0.0000 0.0000 0.0000
v 0.0000 2.0900 0.0000
vt 1.0000 0.0000
vt 0.9477 0.0000
vt 0.6749 0.0000
vt 0.6225 0.0000
vt 0.5000 0.0000
vt 0.4477 0.0000
vt 0.1749 0.0000
vt 0.1225 0.0000
vt 0.0000 0.0000
vt 1.0000 0.0383
vt 0.9477 0.0383
vt 0.6749 0.0383
vt 0.6225 0.0383
vt 0.5000 0.0383
vt 0.4477 0.0383
vt 0.1749 0.0383
vt 0.1225 0.0383
vt 0.0000 0.0383
vt 1.0000 0.2871
vt 0.9477 0.2871
vt 0.6749 0.2871
vt 0.6225 0.2871
vt 0.5000 0.2871
vt 0.4477 0.2871
vt 0.1749 0.2871
vt 0.1225 0.2871
vt 0.0000 0.2871
vt 1.0000 0.5742
vt 0.9477 0.5742
vt 0.6749 0.5742
vt 0.6225 0.5742
vt 0.5000 0.5742
vt 0.4477 0.5742
vt 0.1749 0.5742
vt 0.1225 0.5742
vt 0.0000 0.5742
vt 1.0000 0.7416
vt 0.9477 0.7416
vt 0.6749 0.7416
vt 0.6225 0.7416
vt 0.5000 0.7416
vt 0.4477 0.7416
vt 0.1749 0.7416
vt 0.1225 0.7416
vt 0.0000 0.7416
vt 1.0000 0.8373
vt 0.9477 0.8373
vt 0.6749 0.8373
vt 0.6225 0.8373
vt 0.5000 0.8373
vt 0.4477 0.8373
vt 0.1749 0.8373
vt 0.1225 0.8373
vt 0.0000 0.8373
vt 1.0000 0.9091
vt 0.9477 0.9091
vt 0.6749 0.9091
vt 0.6225 0.9091
vt 0.5000 0.9091
vt 0.4477 0.9091
vt 0.1749 0.9091
vt 0.1225 0.9091
vt 0.0000 0.9091
vt 1.0000 0.9569
vt 0.9477 0.9569
vt 0.6749 0.9569
vt 0.6225 0.9569
vt 0.5000 0.9569
vt 0.4477 0.9569
vt 0.1749 0.9569
vt 0.1225 0.9569
vt 0.0000 0.9569
vt 1.0000 0.9856
vt 0.9477 0.9856
vt 0.6749 0.9856
vt 0.6225 0.9856
vt 0.5000 0.9856
vt 0.4477 0.9856
vt 0.1749 0.9856
vt 0.1225 0.9856
vt 0.0000 0.9856
vt 0.5000 0.0100
vt 0.5000 0.9900
vn 0.1197 -0.9917 0.0459
vn 0.0176 -0.9581 0.2859
vn -0.0385 -0.9836 0.1762
vn -0.1689 -0.9854 0.0216
vn -0.1197 -0.9917 -0.0459
vn -0.0176 -0.9581 -0.2859
vn 0.0385 -0.9836 -0.1762
vn 0.1689 -0.9854 -0.0216
vn 0.9407 -0.1267 0.3148
vn 0.0746 -0.0650 0.9951
vn -0.1827 -0.0971 0.9784
vn -0.9849 -0.0872 0.1493
vn -0.9407 -0.1267 -0.3148
vn -0.0746 -0.0650 -0.9951
vn 0.1827 -0.0971 -0.9784
vn 0.9849 -0.0872 -0.1493
vn 0.9727 -0.0169 0.2316
vn 0.1146 -0.0125 0.9933
vn -0.1266 -0.0200 0.9918
vn -0.9769 -0.0137 0.2134
vn -0.9727 -0.0169 -0.2316
vn -0.1146 -0.0125 -0.9933
vn 0.1266 -0.0200 -0.9918
vn 0.9769 -0.0137 -0.2134
vn 0.9808 0.0187 0.1940
vn 0.1410 0.0425 0.9891
vn -0.1017 0.0230 0.9945
vn -0.9669 0.0216 0.2544
vn -0.9808 0.0187 -0.1940
vn -0.1410 0.0425 -0.9891
vn 0.1017 0.0230 -0.9945
vn 0.9669 0.0216 -0.2544
vn 0.9756 0.0909 0.1999
vn 0.1324 0.2901 0.9478
vn -0.0891 0.1907 0.9776
vn -0.9582 0.0730 0.2766
vn -0.9756 0.0909 -0.1999
vn -0.1324 0.2901 -0.9478
vn 0.0891 0.1907 -0.9776
vn 0.9582 0.0730 -0.2766
vn 0.9482 0.1811 0.2611
vn 0.0868 0.5728 0.8151
vn -0.0590 0.5269 0.8479
vn -0.9210 0.1937 0.3379
vn -0.9482 0.1811 -0.2611
vn -0.0868 0.5728 -0.8151
vn 0.0590 0.5269 -0.8479
vn 0.9210 0.1937 -0.3379
vn 0.8765 0.3167 0.3627
vn 0.0523 0.6959 0.7162
vn -0.0276 0.6734 0.7387
vn -0.7759 0.3881 0.4974
vn -0.8765 0.3167 -0.3627
vn -0.0523 0.6959 -0.7162
vn 0.0276 0.6734 -0.7387
vn 0.7759 0.3881 -0.4974
vn 0.6810 0.4532 0.5752
vn 0.0268 0.6914 0.7219
vn -0.0094 0.7176 0.6964
vn -0.4314 0.5914 0.6813
vn -0.6810 0.4532 -0.5752
vn -0.0268 0.6914 -0.7219
vn 0.0094 0.7176 -0.6964
vn 0.4314 0.5914 -0.6813
vn 0.2407 0.8654 0.4394
vn 0.0134 0.6098 0.7924
vn -0.0024 0.6297 0.7768
vn -0.0960 0.8279 0.5526
vn -0.2407 0.8654 -0.4394
vn -0.0134 0.6098 -0.7924
vn 0.0024 0.6297 -0.7768
vn 0.0960 0.8279 -0.5526
vn 0.0000 -1.0000 0.0000
vn 0.0000 1.0000 0.0000
f 1/1/1 10/11/10 2/2/2
f 1/1/1 9/10/9 10/11/10
f 2/2/2 11/12/11 3/3/3
f 2/2/2 10/11/10 11/12/11
f 3/3/3 12/13/12 4/4/4
f 3/3/3 11/12/11 12/13/12
f 4/4/4 13/14/13 5/5/5
f 4/4/4 12/13/12 13/14/13
f 5/5/5 14/15/14 6/6/6
f 5/5/5 13/14/13 14/15/14
f 6/6/6 15/16/15 7/7/7
f 6/6/6 14/15/14 15/16/15
f 7/7/7 16/17/16 8/8/8
f 7/7/7 15/16/15 16/17/16
f 8/8/8 9/18/9 1/9/1
f 8/8/8 16/17/16 9/18/9
f 9/10/9 18/20/18 10/11/10
f 9/10/9 17/19/17 18/20/18
f 10/11/10 19/21/19 11/12/11
f 10/11/10 18/20/18 19/21/19
f 11/12/11 20/22/20 12/13/12
f 11/12/11 19/21/19 20/22/20
f 12/13/12 21/23/21 13/14/13
f 12/13/12 20/22/20 21/23/21
f 13/14/13 22/24/22 14/15/14
f 13/14/13 21/23/21 22/24/22
f 14/15/14 23/25/23 15/16/15
f 14/15/14 22/24/22 23/25/23
f 15/16/15 24/26/24 16/17/16
f 15/16/15 23/25/23 24/26/24
f 16/17/16 17/27/17 9/18/9
f 16/17/16 24/26/24 17/27/17
f 17/19/17 26/29/26 18/20/18
f 17/19/17 25/28/25 26/29/26
f 18/20/18 27/30/27 19/21/19
f 18/20/18 26/29/26 27/30/27
f 19/21/19 28/31/28 20/22/20
f 19/21/19 27/30/27 28/31/28
f 20/22/20 29/32/29 21/23/21
f 20/22/20 28/31/28 29/32/29
f 21/23/21 30/33/30 22/24/22
f 21/23/21 29/32/29 30/33/30
f 22/24/22 31/34/31 23/25/23
f 22/24/22 30/33/30 31/34/31
f 23/25/23 32/35/32 24/26/24
f 23/25/23 31/34/31 32/35/32
f 24/26/24 25/36/25 17/27/17
f 24/26/24 32/35/32 25/36/25
f 25/28/25 34/38/34 26/29/26
f 25/28/25 33/37/33 34/38/34
f 26/29/26 35/39/35 27/30/27
f 26/29/26 34/38/34 35/39/35
f 27/30/27 36/40/36 28/31/28
f 27/30/27 35/39/35 36/40/36
f 28/31/28 37/41/37 29/32/29
f 28/31/28 36/40/36 37/41/37
f 29/32/29 38/42/38 30/33/30
f 29/32/29 37/41/37 38/42/38
f 30/33/30 39/43/39 31/34/31
f 30/33/30 38/42/38 39/43/39
f 31/34/31 40/44/40 32/35/32
f 31/34/31 39/43/39 40/44/40
f 32/35/32 33/45/33 25/36/25
f 32/35/32 40/44/40 33/45/33
f 33/37/33 42/47/42 34/38/34
f 33/37/33 41/46/41 42/47/42
f 34/38/34 43/48/43 35/39/35
f 34/38/34 42/47/42 43/48/43
f 35/39/35 44/49/44 36/40/36
f 35/39/35 43/48/43 44/49/44
f 36/40/36 45/50/45 37/41/37
f 36/40/36 44/49/44 45/50/45
f 37/41/37 46/51/46 38/42/38
f 37/41/37 45/50/45 46/51/46
f 38/42/38 47/52/47 39/43/39
f 38/42/38 46/51/46 47/52/47
f 39/43/39 48/53/48 40/44/40
f 39/43/39 47/52/47 48/53/48
f 40/44/40 41/54/41 33/45/33
f 40/44/40 48/53/48 41/54/41
f 41/46/41 50/56/50 42/47/42
f 41/46/41 49/55/49 50/56/50
f 42/47/42 51/57/51 43/48/43
f 42/47/42 50/56/50 51/57/51
f 43/48/43 52/58/52 44/49/44
f 43/48/43 51/57/51 52/58/52
f 44/49/44 53/59/53 45/50/45
f 44/49/44 52/58/52 53/59/53
f 45/50/45 54/60/54 46/51/46
f 45/50/45 53/59/53 54/60/54
f 46/51/46 55/61/55 47/52/47
f 46/51/46 54/60/54 55/61/55
f 47/52/47 56/62/56 48/53/48
f 47/52/47 55/61/55 56/62/56
f 48/53/48 49/63/49 41/54/41
f 48/53/48 56/62/56 49/63/49
f 49/55/49 58/65/58 50/56/50
f 49/55/49 57/64/57 58/65/58
f 50/56/50 59/66/59 51/57/51
f 50/56/50 58/65/58 59/66/59
f 51/57/51 60/67/60 52/58/52
f 51/57/51 59/66/59 60/67/60
f 52/58/52 61/68/61 53/59/53
f 52/58/52 60/67/60 61/68/61
f 53/59/53 62/69/62 54/60/54
f 53/59/53 61/68/61 62/69/62
f 54/60/54 63/70/63 55/61/55
f 54/60/54 62/69/62 63/70/63
f 55/61/55 64/71/64 56/62/56
f 55/61/55 63/70/63 64/71/64
f 56/62/56 57/72/57 49/63/49
f 56/62/56 64/71/64 57/72/57
f 57/64/57 66/74/66 58/65/58
f 57/64/57 65/73/65 66/74/66
f 58/65/58 67/75/67 59/66/59
f 58/65/58 66/74/66 67/75/67
f 59/66/59 68/76/68 60/67/60
f 59/66/59 67/75/67 68/76/68
f 60/67/60 69/77/69 61/68/61
f 60/67/60 68/76/68 69/77/69
f 61/68/61 70/78/70 62/69/62
f 61/68/61 69/77/69 70/78/70
f 62/69/62 71/79/71 63/70/63
f 62/69/62 70/78/70 71/79/71
f 63/70/63 72/80/72 64/71/64
f 63/70/63 71/79/71 72/80/72
f 64/71/64 65/81/65 57/72/57
f 64/71/64 72/80/72 65/81/65
f 2/2/2 73/82/73 1/1/1
f 65/73/65 74/83/74 66/74/66
f 3/3/3 73/82/73 2/2/2
f 66/74/66 74/83/74 67/75/67
f 4/4/4 73/82/73 3/3/3
f 67/75/67 74/83/74 68/76/68
f 5/5/5 73/82/73 4/4/4
f 68/76/68 74/83/74 69/77/69
f 6/6/6 73/82/73 5/5/5
f 69/77/69 74/83/74 70/78/70
f 7/7/7 73/82/73 6/6/6
f 70/78/70 74/83/74 71/79/71
f 8/8/8 73/82/73 7/7/7
f 71/79/71 74/83/74 72/80/72
f 1/9/1 73/82/73 8/8/8
f 72/80/72 74/83/74 65/81/65
