mtllib butter_stick.mtl
o butter_stick
usemtl butter_stick_mat
v 0.5225 0.0000 0.1425
v 0.4560 0.0000 0.2090
v -0.4560 0.0000 0.2090
v -0.5225 0.0000 0.1425
v -0.5225 0.0000 -0.1425
v -0.4560 0.0000 -0.2090
v 0.4560 0.0000 -0.2090
v 0.5225 0.0000 -0.1425
v 0.5500 0.0400 0.1500
v 0.4800 0.0400 0.2200
v -0.4800 0.0400 0.2200
v -0.5500 0.0400 0.1500
v -0.5500 0.0400 -0.1500
v -0.4800 0.0400 -0.2200
v 0.4800 0.0400 -0.2200
v 0.5500 0.0400 -0.1500
v 0.5500 0.4000 0.1500
v 0.4800 0.4000 0.2200
v -0.4800 0.4000 0.2200
v -0.5500 0.4000 0.1500
v -0.5500 0.4000 -0.1500
v -0.4800 0.4000 -0.2200
v 0.4800 0.4000 -0.2200
v 0.5500 0.4000 -0.1500
v 0.5225 0.4400 0.1425
v 0.4560 0.4400 0.2090
v -0.4560 0.4400 0.2090
v -0.5225 0.4400 0.1425
v -0.5225 0.4400 -0.1425
v -0.4560 0.4400 -0.2090
v 0.4560 0.4400 -0.2090
v 0.5225 0.4400 -0.1425
v 0.0000 0.0000 0.0000
v 0.0000 0.4400 0.0000
vt 1.0000 0.0000
vt 0.9661 0.0000
vt 0.6368 0.0000
vt 0.6029 0.0000
vt 0.5000 0.0000
vt 0.4661 0.0000
vt 0.1368 0.0000
vt 0.1029 0.0000
vt 0.0000 0.0000
vt 1.0000 0.0909
vt 0.9661 0.0909
vt 0.6368 0.0909
vt 0.6029 0.0909
vt 0.5000 0.0909
vt 0.4661 0.0909
vt 0.1368 0.0909
vt 0.1029 0.0909
vt 0.0000 0.0909
vt 1.0000 0.9091
vt 0.9661 0.9091
vt 0.6368 0.9091
vt 0.6029 0.9091
vt 0.5000 0.9091
vt 0.4661 0.9091
vt 0.1368 0.9091
vt 0.1029 0.9091
vt 0.0000 0.9091
vt 1.0000 1.0000
vt 0.9661 1.0000
vt 0.6368 1.0000
vt 0.6029 1.0000
vt 0.5000 1.0000
vt 0.4661 1.0000
vt 0.1368 1.0000
vt 0.1029 1.0000
vt 0.0000 1.0000
vt 0.5000 0.0100
vt 0.5000 0.9900
vn 0.0816 -0.9963 0.0264
vn 0.0099 -0.9576 0.2881
vn -0.0216 -0.9860 0.1656
vn -0.1223 -0.9924 0.0125
vn -0.0816 -0.9963 -0.0264
vn -0.0099 -0.9576 -0.2881
vn 0.0216 -0.9860 -0.1656
vn 0.1223 -0.9924 -0.0125
vn 0.9565 -0.0960 0.2756
vn 0.0403 -0.0202 0.9990
vn -0.1115 -0.0483 0.9926
vn -0.9918 -0.0500 0.1176
vn -0.9565 -0.0960 -0.2756
vn -0.0403 -0.0202 -0.9990
vn 0.1115 -0.0483 -0.9926
vn 0.9918 -0.0500 -0.1176
vn 0.9918 0.0500 0.1176
vn 0.1115 0.0483 0.9926
vn -0.0403 0.0202 0.9990
vn -0.9565 0.0960 0.2756
vn -0.9918 0.0500 -0.1176
vn -0.1115 0.0483 -0.9926
vn 0.0403 0.0202 -0.9990
vn 0.9565 0.0960 -0.2756
vn 0.1223 0.9924 0.0125
vn 0.0216 0.9860 0.1656
vn -0.0099 0.9576 0.2881
vn -0.0816 0.9963 0.0264
vn -0.1223 0.9924 -0.0125
vn -0.0216 0.9860 -0.1656
vn 0.0099 0.9576 -0.2881
vn 0.0816 0.9963 -0.0264
vn 0.0000 -1.0000 0.0000
vn 0.0000 1.0000 0.0000
f 1/1/1 10/11/10 2/2/2
f 1/1/1 9/10/9 10/11/10
f 2/2/2 11/12/11 3/3/3
f 2/2/2 10/11/10 11/12/11
f 3/3/3 12/13/12 4/4/4
f 3/3/3 11/12/11 12/13/12
f 4/4/4 13/14/13 5/5/5
f 4/4/4 12/13/12 13/14/13
f 5/5/5 14/15/14 6/6/6
f 5/5/5 13/14/13 14/15/14
f 6/6/6 15/16/15 7/7/7
f 6/6/6 14/15/14 15/16/15
f 7/7/7 16/17/16 8/8/8
f 7/7/7 15/16/15 16/17/16
f 8/8/8 9/18/9 1/9/1
f 8/8/8 16/17/16 9/18/9
f 9/10/9 18/20/18 10/11/10
f 9/10/9 17/19/17 18/20/18
f 10/11/10 19/21/19 11/12/11
f 10/11/10 18/20/18 19/21/19
f 11/12/11 20/22/20 12/13/12
f 11/12/11 19/21/19 20/22/20
f 12/13/12 21/23/21 13/14/13
f 12/13/12 20/22/20 21/23/21
f 13/14/13 22/24/22 14/15/14
f 13/14/13 21/23/21 22/24/22
f 14/15/14 23/25/23 15/16/15
f 14/15/14 22/24/22 23/25/23
f 15/16/15 24/26/24 16/17/16
f 15/16/15 23/25/23 24/26/24
f 16/17/16 17/27/17 9/18/9
f 16/17/16 24/26/24 17/27/17
f 17/19/17 26/29/26 18/20/18
f 17/19/17 25/28/25 26/29/26
f 18/20/18 27/30/27 19/21/19
f 18/20/18 26/29/26 27/30/27
f 19/21/19 28/31/28 20/22/20
f 19/21/19 27/30/27 28/31/28
f 20/22/20 29/32/29 21/23/21
f 20/22/20 28/31/28 29/32/29
f 21/23/21 30/33/30 22/24/22
f 21/23/21 29/32/29 30/33/30
f 22/24/22 31/34/31 23/25/23
f 22/24/22 30/33/30 31/34/31
f 23/25/23 32/35/32 24/26/24
f 23/25/23 31/34/31 32/35/32
f 24/26/24 25/36/25 17/27/17
f 24/26/24 32/35/32 25/36/25
f 2/2/2 33/37/33 1/1/1
f 25/28/25 34/38/34 26/29/26
f 3/3/3 33/37/33 2/2/2
f 26/29/26 34/38/34 27/30/27
f 4/4/4 33/37/33 3/3/3
f 27/30/27 34/38/34 28/31/28
f 5/5/5 33/37/33 4/4/4
f 28/31/28 34/38/34 29/32/29
f 6/6/6 33/37/33 5/5/5
f 29/32/29 34/38/34 30/33/30
f 7/7/7 33/37/33 6/6/6
f 30/33/30 34/38/34 31/34/31
f 8/8/8 33/37/33 7/7/7
f 31/34/31 34/38/34 32/35/32
f 1/9/1 33/37/33 8/8/8
f 32/35/32 34/38/34 25/36/25
