mtllib cookie_sheet.mtl
o CookieSheet
usemtl sheet_metal
v 1.7460 0.0000 0.9894
v 1.5714 0.0000 1.1640
v -1.5714 0.0000 1.1640
v -1.7460 0.0000 0.9894
v -1.7460 0.0000 -0.9894
v -1.5714 0.0000 -1.1640
v 1.5714 0.0000 -1.1640
v 1.7460 0.0000 -0.9894
v 1.8000 0.0300 1.0200
v 1.6200 0.0300 1.2000
v -1.6200 0.0300 1.2000
v -1.8000 0.0300 1.0200
v -1.8000 0.0300 -1.0200
v -1.6200 0.0300 -1.2000
v 1.6200 0.0300 -1.2000
v 1.8000 0.0300 -1.0200
v 1.8000 0.1300 1.0200
v 1.6200 0.1300 1.2000
v -1.6200 0.1300 1.2000
v -1.8000 0.1300 1.0200
v -1.8000 0.1300 -1.0200
v -1.6200 0.1300 -1.2000
v 1.6200 0.1300 -1.2000
v 1.8000 0.1300 -1.0200
v 1.8540 0.1400 1.0710
v 1.6686 0.1400 1.2600
v -1.6686 0.1400 1.2600
v -1.8540 0.1400 1.0710
v -1.8540 0.1400 -1.0710
v -1.6686 0.1400 -1.2600
v 1.6686 0.1400 -1.2600
v 1.8540 0.1400 -1.0710
v 1.8540 0.2200 1.0710
v 1.6686 0.2200 1.2600
v -1.6686 0.2200 1.2600
v -1.8540 0.2200 1.0710
v -1.8540 0.2200 -1.0710
v -1.6686 0.2200 -1.2600
v 1.6686 0.2200 -1.2600
v 1.8540 0.2200 -1.0710
v 0.0000 0.0000 0.0000
v 0.0000 0.2200 0.0000
vn 0.0172 -0.9998 0.0026
vn 0.0012 -0.9990 0.0449
vn -0.0025 -0.9997 0.0245
vn -0.0302 -0.9995 0.0013
vn -0.0172 -0.9998 -0.0026
vn -0.0012 -0.9990 -0.0449
vn 0.0025 -0.9997 -0.0245
vn 0.0302 -0.9995 -0.0013
vn 0.8405 -0.5334 0.0951
vn 0.0363 -0.1861 0.9819
vn -0.0679 -0.4018 0.9132
vn -0.9611 -0.2706 0.0553
vn -0.8405 -0.5334 -0.0951
vn -0.0363 -0.1861 -0.9819
vn 0.0679 -0.4018 -0.9132
vn 0.9611 -0.2706 -0.0553
vn 0.9481 -0.3146 0.0456
vn 0.0634 -0.6944 0.7168
vn -0.0293 -0.3156 0.9484
vn -0.7533 -0.6500 0.1004
vn -0.9481 -0.3146 -0.0456
vn -0.0634 -0.6944 -0.7168
vn 0.0293 -0.3156 -0.9484
vn 0.7533 -0.6500 -0.1004
vn 0.7040 -0.7045 0.0904
vn 0.0297 -0.3782 0.9253
vn -0.0581 -0.7502 0.6586
vn -0.9261 -0.3746 0.0447
vn -0.7040 -0.7045 -0.0904
vn -0.0297 -0.3782 -0.9253
vn 0.0581 -0.7502 -0.6586
vn 0.9261 -0.3746 -0.0447
vn 0.0789 0.9969 0.0033
vn 0.0063 0.9980 0.0623
vn -0.0032 0.9934 0.1147
vn -0.0446 0.9990 0.0066
vn -0.0789 0.9969 -0.0033
vn -0.0063 0.9980 -0.0623
vn 0.0032 0.9934 -0.1147
vn 0.0446 0.9990 -0.0066
vn 0.0000 -1.0000 0.0000
vn 0.0000 1.0000 0.0000
f 1//1 10//10 2//2
f 1//1 9//9 10//10
f 2//2 11//11 3//3
f 2//2 10//10 11//11
f 3//3 12//12 4//4
f 3//3 11//11 12//12
f 4//4 13//13 5//5
f 4//4 12//12 13//13
f 5//5 14//14 6//6
f 5//5 13//13 14//14
f 6//6 15//15 7//7
f 6//6 14//14 15//15
f 7//7 16//16 8//8
f 7//7 15//15 16//16
f 8//8 9//9 1//1
f 8//8 16//16 9//9
f 9//9 18//18 10//10
f 9//9 17//17 18//18
f 10//10 19//19 11//11
f 10//10 18//18 19//19
f 11//11 20//20 12//12
f 11//11 19//19 20//20
f 12//12 21//21 13//13
f 12//12 20//20 21//21
f 13//13 22//22 14//14
f 13//13 21//21 22//22
f 14//14 23//23 15//15
f 14//14 22//22 23//23
f 15//15 24//24 16//16
f 15//15 23//23 24//24
f 16//16 17//17 9//9
f 16//16 24//24 17//17
f 17//17 26//26 18//18
f 17//17 25//25 26//26
f 18//18 27//27 19//19
f 18//18 26//26 27//27
f 19//19 28//28 20//20
f 19//19 27//27 28//28
f 20//20 29//29 21//21
f 20//20 28//28 29//29
f 21//21 30//30 22//22
f 21//21 29//29 30//30
f 22//22 31//31 23//23
f 22//22 30//30 31//31
f 23//23 32//32 24//24
f 23//23 31//31 32//32
f 24//24 25//25 17//17
f 24//24 32//32 25//25
f 25//25 34//34 26//26
f 25//25 33//33 34//34
f 26//26 35//35 27//27
f 26//26 34//34 35//35
f 27//27 36//36 28//28
f 27//27 35//35 36//36
f 28//28 37//37 29//29
f 28//28 36//36 37//37
f 29//29 38//38 30//30
f 29//29 37//37 38//38
f 30//30 39//39 31//31
f 30//30 38//38 39//39
f 31//31 40//40 32//32
f 31//31 39//39 40//40
f 32//32 33//33 25//25
f 32//32 40//40 33//33
f 2//2 41//41 1//1
f 33//33 42//42 34//34
f 3//3 41//41 2//2
f 34//34 42//42 35//35
f 4//4 41//41 3//3
f 35//35 42//42 36//36
f 5//5 41//41 4//4
f 36//36 42//42 37//37
f 6//6 41//41 5//5
f 37//37 42//42 38//38
f 7//7 41//41 6//6
f 38//38 42//42 39//39
f 8//8 41//41 7//7
f 39//39 42//42 40//40
f 1//1 41//41 8//8
f 40//40 42//42 33//33
