mtllib milk_carton.mtl
o milk_carton
usemtl milk_carton_mat
v 0.3840 0.0000 0.3360
v 0.3360 0.0000 0.3840
v -0.3360 0.0000 0.3840
v -0.3840 0.0000 0.3360
v -0.3840 0.0000 -0.3360
v -0.3360 0.0000 -0.3840
v 0.3360 0.0000 -0.3840
v 0.3840 0.0000 -0.3360
v 0.4000 0.0500 0.3500
v 0.3500 0.0500 0.4000
v -0.3500 0.0500 0.4000
v -0.4000 0.0500 0.3500
v -0.4000 0.0500 -0.3500
v -0.3500 0.0500 -0.4000
v 0.3500 0.0500 -0.4000
v 0.4000 0.0500 -0.3500
v 0.4000 1.3000 0.3500
v 0.3500 1.3000 0.4000
v -0.3500 1.3000 0.4000
v -0.4000 1.3000 0.3500
v -0.4000 1.3000 -0.3500
v -0.3500 1.3000 -0.4000
v 0.3500 1.3000 -0.4000
v 0.4000 1.3000 -0.3500
v 0.4000 1.3200 0.3430
v 0.3500 1.3200 0.3920
v -0.3500 1.3200 0.3920
v -0.4000 1.3200 0.3430
v -0.4000 1.3200 -0.3430
v -0.3500 1.3200 -0.3920
v 0.3500 1.3200 -0.3920
v 0.4000 1.3200 -0.3430
v 0.3880 1.7400 0.0245
v 0.3395 1.7400 0.0280
v -0.3395 1.7400 0.0280
v -0.3880 1.7400 0.0245
v -0.3880 1.7400 -0.0245
v -0.3395 1.7400 -0.0280
v 0.3395 1.7400 -0.0280
v 0.3880 1.7400 -0.0245
v 0.3880 1.7600 0.0193
v 0.3395 1.7600 0.0220
v -0.3395 1.7600 0.0220
v -0.3880 1.7600 0.0193
v -0.3880 1.7600 -0.0193
v -0.3395 1.7600 -0.0220
v 0.3395 1.7600 -0.0220
v 0.3880 1.7600 -0.0193
v 0.3880 1.9800 0.0193
v 0.3395 1.9800 0.0220
v -0.3395 1.9800 0.0220
v -0.3880 1.9800 0.0193
v -0.3880 1.9800 -0.0193
v -0.3395 1.9800 -0.0220
v 0.3395 1.9800 -0.0220
v 0.3880 1.9800 -0.0193
v 0.0000 0.0000 0.0000
v 0.0000 1.9800 0.0000
vt 1.0000 0.0000
vt 0.9771 0.0000
vt 0.7500 0.0000
vt 0.7271 0.0000
vt 0.5000 0.0000
vt 0.4771 0.0000
vt 0.2500 0.0000
vt 0.2271 0.0000
vt 0.0000 0.0000
vt 1.0000 0.0253
vt 0.9771 0.0253
vt 0.7500 0.0253
vt 0.7271 0.0253
vt 0.5000 0.0253
vt 0.4771 0.0253
vt 0.2500 0.0253
vt 0.2271 0.0253
vt 0.0000 0.0253
vt 1.0000 0.6566
vt 0.9771 0.6566
vt 0.7500 0.6566
vt 0.7271 0.6566
vt 0.5000 0.6566
vt 0.4771 0.6566
vt 0.2500 0.6566
vt 0.2271 0.6566
vt 0.0000 0.6566
vt 1.0000 0.6667
vt 0.9771 0.6667
vt 0.7500 0.6667
vt 0.7271 0.6667
vt 0.5000 0.6667
vt 0.4771 0.6667
vt 0.2500 0.6667
vt 0.2271 0.6667
vt 0.0000 0.6667
vt 1.0000 0.8788
vt 0.9771 0.8788
vt 0.7500 0.8788
vt 0.7271 0.8788
vt 0.5000 0.8788
vt 0.4771 0.8788
vt 0.2500 0.8788
vt 0.2271 0.8788
vt 0.0000 0.8788
vt 1.0000 0.8889
vt 0.9771 0.8889
vt 0.7500 0.8889
vt 0.7271 0.8889
vt 0.5000 0.8889
vt 0.4771 0.8889
vt 0.2500 0.8889
vt 0.2271 0.8889
vt 0.0000 0.8889
vt 1.0000 1.0000
vt 0.9771 1.0000
vt 0.7500 1.0000
vt 0.7271 1.0000
vt 0.5000 1.0000
vt 0.4771 1.0000
vt 0.2500 1.0000
vt 0.2271 1.0000
vt 0.0000 1.0000
vt 0.5000 0.0100
vt 0.5000 0.9900
vn 0.1247 -0.9921 0.0159
vn 0.0074 -0.9756 0.2192
vn -0.0159 -0.9921 0.1247
vn -0.2192 -0.9756 0.0074
vn -0.1247 -0.9921 -0.0159
vn -0.0074 -0.9756 -0.2192
vn 0.0159 -0.9921 -0.1247
vn 0.2192 -0.9756 -0.0074
vn 0.9928 -0.0217 0.1182
vn 0.0364 -0.0076 0.9993
vn -0.1182 -0.0217 0.9928
vn -0.9993 -0.0076 0.0364
vn -0.9928 -0.0217 -0.1182
vn -0.0364 -0.0076 -0.9993
vn 0.1182 -0.0217 -0.9928
vn 0.9993 -0.0076 -0.0364
vn 0.9994 0.0004 0.0353
vn 0.1215 0.0112 0.9925
vn -0.0352 0.0035 0.9994
vn -0.9926 0.0003 0.1216
vn -0.9994 0.0004 -0.0353
vn -0.1215 0.0112 -0.9925
vn 0.0352 0.0035 -0.9994
vn 0.9926 0.0003 -0.1216
vn 0.9846 0.1243 0.1231
vn 0.0278 0.6497 0.7597
vn -0.0487 0.6356 0.7705
vn -0.9950 0.0752 0.0663
vn -0.9846 0.1243 -0.1231
vn -0.0278 0.6497 -0.7597
vn 0.0487 0.6356 -0.7705
vn 0.9950 0.0752 -0.0663
vn 0.9943 0.0794 0.0713
vn 0.0482 0.6320 0.7735
vn -0.0020 0.6487 0.7610
vn -0.6288 0.4958 0.5990
vn -0.9943 0.0794 -0.0713
vn -0.0482 0.6320 -0.7735
vn 0.0020 0.6487 -0.7610
vn 0.6288 0.4958 -0.5990
vn 0.4577 0.0101 0.8891
vn 0.0022 0.0142 0.9999
vn -0.0064 0.0424 0.9991
vn -0.8252 0.0244 0.5643
vn -0.4577 0.0101 -0.8891
vn -0.0022 0.0142 -0.9999
vn 0.0064 0.0424 -0.9991
vn 0.8252 0.0244 -0.5643
vn 0.6591 0.6363 0.4008
vn 0.0071 0.0987 0.9951
vn -0.0020 0.0547 0.9985
vn -0.3348 0.5858 0.7381
vn -0.6591 0.6363 -0.4008
vn -0.0071 0.0987 -0.9951
vn 0.0020 0.0547 -0.9985
vn 0.3348 0.5858 -0.7381
vn 0.0000 -1.0000 0.0000
vn 0.0000 1.0000 0.0000
f 1/1/1 10/11/10 2/2/2
f 1/1/1 9/10/9 10/11/10
f 2/2/2 11/12/11 3/3/3
f 2/2/2 10/11/10 11/12/11
f 3/3/3 12/13/12 4/4/4
f 3/3/3 11/12/11 12/13/12
f 4/4/4 13/14/13 5/5/5
f 4/4/4 12/13/12 13/14/13
f 5/5/5 14/15/14 6/6/6
f 5/5/5 13/14/13 14/15/14
f 6/6/6 15/16/15 7/7/7
f 6/6/6 14/15/14 15/16/15
f 7/7/7 16/17/16 8/8/8
f 7/7/7 15/16/15 16/17/16
f 8/8/8 9/18/9 1/9/1
f 8/8/8 16/17/16 9/18/9
f 9/10/9 18/20/18 10/11/10
f 9/10/9 17/19/17 18/20/18
f 10/11/10 19/21/19 11/12/11
f 10/11/10 18/20/18 19/21/19
f 11/12/11 20/22/20 12/13/12
f 11/12/11 19/21/19 20/22/20
f 12/13/12 21/23/21 13/14/13
f 12/13/12 20/22/20 21/23/21
f 13/14/13 22/24/22 14/15/14
f 13/14/13 21/23/21 22/24/22
f 14/15/14 23/25/23 15/16/15
f 14/15/14 22/24/22 23/25/23
f 15/16/15 24/26/24 16/17/16
f 15/16/15 23/25/23 24/26/24
f 16/17/16 17/27/17 9/18/9
f 16/17/16 24/26/24 17/27/17
f 17/19/17 26/29/26 18/20/18
f 17/19/17 25/28/25 26/29/26
f 18/20/18 27/30/27 19/21/19
f 18/20/18 26/29/26 27/30/27
f 19/21/19 28/31/28 20/22/20
f 19/21/19 27/30/27 28/31/28
f 20/22/20 29/32/29 21/23/21
f 20/22/20 28/31/28 29/32/29
f 21/23/21 30/33/30 22/24/22
f 21/23/21 29/32/29 30/33/30
f 22/24/22 31/34/31 23/25/23
f 22/24/22 30/33/30 31/34/31
f 23/25/23 32/35/32 24/26/24
f 23/25/23 31/34/31 32/35/32
f 24/26/24 25/36/25 17/27/17
f 24/26/24 32/35/32 25/36/25
f 25/28/25 34/38/34 26/29/26
f 25/28/25 33/37/33 34/38/34
f 26/29/26 35/39/35 27/30/27
f 26/29/26 34/38/34 35/39/35
f 27/30/27 36/40/36 28/31/28
f 27/30/27 35/39/35 36/40/36
f 28/31/28 37/41/37 29/32/29
f 28/31/28 36/40/36 37/41/37
f 29/32/29 38/42/38 30/33/30
f 29/32/29 37/41/37 38/42/38
f 30/33/30 39/43/39 31/34/31
f 30/33/30 38/42/38 39/43/39
f 31/34/31 40/44/40 32/35/32
f 31/34/31 39/43/39 40/44/40
f 32/35/32 33/45/33 25/36/25
f 32/35/32 40/44/40 33/45/33
f 33/37/33 42/47/42 34/38/34
f 33/37/33 41/46/41 42/47/42
f 34/38/34 43/48/43 35/39/35
f 34/38/34 42/47/42 43/48/43
f 35/39/35 44/49/44 36/40/36
f 35/39/35 43/48/43 44/49/44
f 36/40/36 45/50/45 37/41/37
f 36/40/36 44/49/44 45/50/45
f 37/41/37 46/51/46 38/42/38
f 37/41/37 45/50/45 46/51/46
f 38/42/38 47/52/47 39/43/39
f 38/42/38 46/51/46 47/52/47
f 39/43/39 48/53/48 40/44/40
f 39/43/39 47/52/47 48/53/48
f 40/44/40 41/54/41 33/45/33
f 40/44/40 48/53/48 41/54/41
f 41/46/41 50/56/50 42/47/42
f 41/46/41 49/55/49 50/56/50
f 42/47/42 51/57/51 43/48/43
f 42/47/42 50/56/50 51/57/51
f 43/48/43 52/58/52 44/49/44
f 43/48/43 51/57/51 52/58/52
f 44/49/44 53/59/53 45/50/45
f 44/49/44 52/58/52 53/59/53
f 45/50/45 54/60/54 46/51/46
f 45/50/45 53/59/53 54/60/54
f 46/51/46 55/61/55 47/52/47
f 46/51/46 54/60/54 55/61/55
f 47/52/47 56/62/56 48/53/48
f 47/52/47 55/61/55 56/62/56
f 48/53/48 49/63/49 41/54/41
f 48/53/48 56/62/56 49/63/49
f 2/2/2 57/64/57 1/1/1
f 49/55/49 58/65/58 50/56/50
f 3/3/3 57/64/57 2/2/2
f 50/56/50 58/65/58 51/57/51
f 4/4/4 57/64/57 3/3/3
f 51/57/51 58/65/58 52/58/52
f 5/5/5 57/64/57 4/4/4
f 52/58/52 58/65/58 53/59/53
f 6/6/6 57/64/57 5/5/5
f 53/59/53 58/65/58 54/60/54
f 7/7/7 57/64/57 6/6/6
f 54/60/54 58/65/58 55/61/55
f 8/8/8 57/64/57 7/7/7
f 55/61/55 58/65/58 56/62/56
f 1/9/1 57/64/57 8/8/8
f 56/62/56 58/65/58 49/63/49
